Coordinates
version=1
nRows=65
nColumns=12
inDegrees=yes

Units are S.I. units (second, meters, Newtons, ...)
Angles are in degrees

endheader
time	SC_y	SC_z	SC_x	AC_y	AC_z	AC_x	GH_y	GH_z	GH_yy	EL_x	PS_y
       0.0              -16.08          21.14          70.61          42.79         -15.96          1.866           31.6           78.2         -39.38          29.23          89.12
   0.03263              -16.08          21.14          70.61          42.79         -15.96          1.864          31.58          78.19         -39.36          29.24          89.11
   0.06527              -16.08          21.14          70.61          42.79         -15.95          1.862          31.56          78.17         -39.34          29.26           89.1
    0.0979              -16.08          21.15          70.61          42.79         -15.95           1.86          31.54          78.16         -39.32          29.28          89.09
    0.1305              -16.08          21.15          70.61          42.79         -15.95          1.858          31.52          78.14          -39.3           29.3          89.08
    0.1632              -16.08          21.15          70.61          42.79         -15.94          1.855           31.5          78.13         -39.28          29.32          89.07
    0.1958              -16.08          21.15          70.61          42.79         -15.94          1.853          31.48          78.11         -39.26          29.34          89.06
    0.2284              -16.08          21.15          70.61          42.79         -15.93           1.85          31.46          78.09         -39.23          29.36          89.05
    0.2611              -16.08          21.16          70.61          42.78         -15.93          1.847          31.43          78.07          -39.2          29.38          89.04
    0.2937              -16.08          21.16          70.61          42.78         -15.92          1.843           31.4          78.05         -39.17          29.41          89.02
    0.3263              -16.09          21.16          70.61          42.78         -15.92           1.84          31.37          78.02         -39.14          29.43          89.01
     0.359              -16.09          21.17          70.61          42.78         -15.91          1.836          31.34           78.0         -39.11          29.46          88.99
    0.3916              -16.09          21.17          70.61          42.78         -15.91          1.832          31.31          77.97         -39.07           29.5          88.98
    0.4242              -16.09          21.17          70.61          42.78          -15.9          1.828          31.27          77.94         -39.04          29.53          88.96
    0.4569              -16.09          21.18           70.6          42.77         -15.89          1.823          31.23          77.91         -38.99          29.57          88.94
    0.4895              -16.09          21.18           70.6          42.77         -15.88          1.818          31.19          77.88         -38.95          29.61          88.92
    0.5222              -16.09          21.18           70.6          42.77         -15.87          1.813          31.14          77.84          -38.9          29.65           88.9
    0.5548              -16.09          21.19           70.6          42.77         -15.86          1.807          31.09           77.8         -38.84           29.7          88.87
    0.5874              -16.09          21.19           70.6          42.76         -15.85            1.8          31.03          77.75         -38.79          29.75          88.84
    0.6201              -16.09           21.2           70.6          42.76         -15.84          1.793          30.97           77.7         -38.72          29.81          88.81
    0.6527              -16.09          21.21           70.6          42.76         -15.83          1.785           30.9          77.65         -38.65          29.87          88.78
    0.6853              -16.09          21.21          70.59          42.75         -15.82          1.776          30.83          77.59         -38.57          29.94          88.75
     0.718               -16.1          21.22          70.59          42.75          -15.8          1.767          30.75          77.53         -38.49          30.01          88.71
    0.7506               -16.1          21.23          70.59          42.74         -15.78          1.756          30.66          77.45         -38.39           30.1          88.66
    0.7832               -16.1          21.24          70.59          42.74         -15.77          1.744          30.56          77.37         -38.28          30.19          88.61
    0.8159               -16.1          21.25          70.58          42.73         -15.74          1.731          30.44          77.28         -38.17          30.29          88.56
    0.8485               -16.1          21.26          70.58          42.72         -15.72          1.716          30.32          77.18         -38.03          30.41           88.5
    0.8811              -16.11          21.27          70.57          42.71         -15.69          1.699          30.17          77.07         -37.88          30.54          88.43
    0.9138              -16.11          21.29          70.57          42.71         -15.66          1.681          30.01          76.94         -37.71          30.69          88.35
    0.9464              -16.11          21.31          70.56           42.7         -15.63          1.659          29.83           76.8         -37.52          30.86          88.26
     0.979              -16.12          21.33          70.56          42.68         -15.59          1.635          29.62          76.63          -37.3          31.05          88.16
     1.012              -16.12          21.35          70.55          42.67         -15.55          1.607          29.39          76.44         -37.05          31.27          88.04
     1.044              -16.12          21.37          70.54          42.66          -15.5          1.574          29.11          76.22         -36.76          31.52          87.91
     1.077              -16.13           21.4          70.54          42.64         -15.44          1.537          28.79          75.96         -36.43          31.82          87.76
      1.11              -16.14          21.44          70.52          42.62         -15.37          1.493          28.41          75.67         -36.03          32.17          87.57
     1.142              -16.14          21.48          70.51          42.59         -15.28          1.441          27.97          75.31         -35.57          32.57          87.36
     1.175              -16.15          21.53           70.5          42.56         -15.19           1.38          27.45           74.9         -35.02          33.06           87.1
     1.207              -16.16          21.59          70.48          42.53         -15.07          1.306          26.82          74.39         -34.36          33.64           86.8
      1.24              -16.18          21.66          70.46          42.49         -14.93          1.217          26.06          73.79         -33.56          34.34          86.43
     1.273              -16.19          21.75          70.43          42.43         -14.75          1.107          25.13          73.05         -32.58           35.2          85.98
     1.305              -16.21          21.85           70.4          42.37         -14.54         0.9728          23.98          72.13         -31.38          36.26          85.42
     1.338              -16.24          21.99          70.36          42.29         -14.27          0.805          22.55          70.99         -29.87          37.58          84.73
     1.371              -16.27          22.16          70.31          42.19         -13.94         0.5935          20.75          69.55         -27.98          39.25          83.85
     1.403              -16.31          22.37          70.24          42.06         -13.51         0.3247          18.45          67.73         -25.57          41.36          82.74
     1.436              -16.36          22.64          70.16           41.9         -12.97       -0.01936          15.52          65.39         -22.49          44.07          81.32
     1.469              -16.42           23.0          70.05          41.69         -12.26        -0.4609          11.76          62.39         -18.53          47.54          79.49
     1.501               -16.5          23.44          69.92          41.43         -11.37         -1.025          6.948          58.56         -13.48          51.98          77.16
     1.534              -16.61          24.01          69.75          41.09         -10.24         -1.734         0.9023          53.74         -7.127          57.57          74.22
     1.566              -16.73           24.7          69.54          40.68          -8.87         -2.598         -6.466          47.87         0.6138          64.37          70.65
     1.599              -16.88           25.5           69.3          40.21         -7.279           -3.6         -15.01          41.06          9.587          72.25           66.5
     1.632              -17.04          26.36          69.03           39.7         -5.556         -4.685         -24.25          33.69           19.3          80.79          62.02
     1.664               -17.2          27.23          68.77          39.18         -3.834         -5.769          -33.5          26.32          29.02          89.33          57.53
     1.697              -17.35          28.02          68.53          38.71         -2.243         -6.771         -42.04          19.51          37.99          97.21          53.38
      1.73              -17.47          28.71          68.32           38.3        -0.8703         -7.635         -49.41          13.64          45.73          104.0          49.81
     1.762              -17.58          29.28          68.15          37.96         0.2559         -8.344         -55.46          8.821          52.09          109.6          46.88
     1.795              -17.66          29.73          68.01           37.7          1.152         -8.908         -60.26          4.989          57.14          114.0          44.54
     1.828              -17.72          30.08          67.91          37.49          1.853          -9.35         -64.03          1.989          61.09          117.5          42.72
      1.86              -17.77          30.35          67.82          37.33          2.399         -9.694         -66.96         -0.349          64.18          120.2          41.29
     1.893              -17.81          30.57          67.76           37.2          2.826         -9.963         -69.25         -2.176          66.58          122.3          40.18
     1.925              -17.84          30.74          67.71           37.1          3.162         -10.17         -71.06         -3.612          68.48          124.0          39.31
     1.958              -17.87          30.87          67.67          37.02          3.429         -10.34         -72.49         -4.753          69.98          125.3          38.61
     1.991              -17.89          30.98          67.64          36.96          3.642         -10.48         -73.64         -5.668          71.19          126.4          38.05
     2.023               -17.9          31.06          67.61           36.9          3.815         -10.59         -74.56         -6.409          72.16          127.2           37.6
     2.056              -17.92          31.13          67.59          36.86          3.957         -10.67         -75.33         -7.016          72.96          127.9          37.23
     2.089              -17.93          31.19          67.57          36.83          4.074         -10.75         -75.96         -7.517          73.62          128.5          36.93
